<?xml version="1.0" standalone="no"?>
<!DOCTYPE svg PUBLIC "-//W3C//DTD SVG 20010904//EN"
 "http://www.w3.org/TR/2001/REC-SVG-20010904/DTD/svg10.dtd">
<svg version="1.0" xmlns="http://www.w3.org/2000/svg"
 width="260.000000pt" height="260.000000pt" viewBox="0 0 260.000000 260.000000"
 preserveAspectRatio="xMidYMid meet">
<metadata>
Created by potrace 1.14, written by Peter Selinger 2001-2017
</metadata>
<g transform="translate(0.000000,260.000000) scale(0.100000,-0.100000)"
fill="#000000" stroke="none">
<path d="M1169 2596 c-2 -2 -24 -6 -49 -10 -25 -3 -58 -8 -75 -11 -16 -4 -38
-7 -47 -8 -10 -1 -18 -4 -18 -7 0 -3 -8 -7 -17 -8 -27 -3 -45 -8 -76 -20 -15
-7 -40 -15 -55 -19 -53 -13 -198 -95 -327 -183 -25 -18 -129 -114 -159 -149
-12 -13 -28 -31 -37 -40 -25 -25 -115 -152 -134 -191 -10 -19 -23 -38 -29 -42
-6 -4 -8 -8 -4 -8 4 0 -1 -15 -11 -33 -19 -34 -78 -189 -84 -222 -2 -11 -7
-27 -10 -35 -6 -16 -14 -59 -25 -130 -9 -57 -8 -335 1 -375 4 -16 10 -46 13
-65 3 -19 9 -46 14 -60 6 -14 11 -34 13 -45 4 -21 5 -24 40 -115 43 -113 144
-281 227 -374 72 -81 224 -216 244 -216 4 0 16 -9 28 -20 12 -11 28 -20 35
-20 7 0 13 -3 13 -7 0 -5 20 -17 45 -28 25 -11 45 -23 45 -27 0 -5 3 -7 8 -6
4 1 23 -5 42 -13 30 -13 64 -26 150 -56 8 -3 22 -7 30 -8 8 -2 26 -6 40 -10
14 -3 39 -8 55 -10 17 -2 30 -4 30 -5 0 -9 80 -13 220 -13 141 0 186 3 265 22
52 12 100 23 105 24 6 2 15 5 20 8 6 4 28 12 50 19 202 65 439 237 582 425 21
28 41 52 46 53 4 2 7 7 7 12 0 4 21 42 46 84 45 75 114 233 117 269 1 9 5 17
10 17 4 0 5 4 2 10 -3 5 -2 18 3 27 9 17 13 37 29 143 9 56 9 325 0 364 -10
47 -21 120 -19 129 1 4 -2 7 -6 7 -7 0 -12 19 -15 63 -1 9 -5 17 -9 17 -4 0
-8 9 -8 19 0 11 -4 23 -10 26 -5 3 -10 13 -10 22 0 20 -95 210 -118 236 -8 9
-11 17 -6 17 5 0 4 4 -1 8 -6 4 -26 27 -45 52 -52 67 -50 65 -122 138 -72 72
-107 102 -172 144 -22 15 -45 31 -51 36 -5 4 -30 19 -55 32 -25 14 -48 29 -51
33 -3 5 -9 8 -12 8 -4 0 -28 9 -53 19 -52 23 -161 61 -184 65 -8 1 -23 5 -32
9 -9 4 -22 5 -28 1 -5 -3 -10 -2 -10 3 0 5 -6 9 -12 9 -7 1 -29 4 -48 8 -38 7
-335 16 -341 11z m300 -630 c190 -51 363 -197 438 -371 33 -78 38 -91 45 -140
2 -11 6 -24 10 -30 8 -13 3 -199 -7 -245 -19 -97 -97 -247 -165 -318 l-21 -22
33 -48 c18 -26 36 -48 41 -50 4 -2 7 -10 7 -18 0 -8 5 -14 10 -14 6 0 10 -7
10 -15 0 -8 5 -15 10 -15 6 0 10 -7 10 -15 0 -8 4 -15 9 -15 5 0 11 -9 14 -20
3 -11 1 -20 -5 -20 -11 0 -101 -61 -106 -72 -2 -5 -9 -8 -15 -8 -7 0 -25 -11
-41 -25 -37 -31 -49 -31 -66 0 -7 14 -17 25 -22 25 -4 0 -8 7 -8 15 0 8 -4 15
-10 15 -5 0 -10 5 -10 11 0 12 -59 100 -74 111 -15 10 9 33 102 95 48 32 91
61 96 65 6 4 -7 32 -29 65 -22 32 -38 61 -37 66 1 4 -2 7 -7 7 -6 0 -20 18
-32 40 -13 22 -27 40 -33 40 -5 0 0 10 11 23 27 28 62 107 67 149 3 18 6 35 7
38 6 16 3 120 -5 120 -4 0 -6 9 -3 20 3 11 2 20 -2 20 -4 0 -8 6 -8 13 0 31
-51 115 -98 162 -51 50 -142 102 -200 113 -16 3 -65 6 -107 5 -67 0 -87 -5
-150 -35 -73 -35 -161 -111 -173 -149 -4 -10 -11 -19 -16 -19 -6 0 -7 -4 -4
-10 3 -5 1 -10 -6 -10 -7 0 -9 -3 -6 -7 4 -3 2 -12 -4 -20 -6 -7 -8 -13 -4
-13 4 0 1 -7 -6 -16 -16 -20 -24 -210 -9 -219 6 -4 8 -10 5 -14 -10 -17 55
-129 104 -178 48 -48 125 -95 181 -110 14 -3 67 -7 118 -7 l94 -1 36 -55 c20
-30 42 -61 49 -68 7 -7 13 -17 13 -22 0 -5 11 -21 25 -36 13 -14 23 -30 20
-34 -13 -21 -154 -51 -245 -52 -137 0 -266 38 -380 115 -42 28 -137 118 -170
162 -27 35 -88 159 -96 195 -11 49 -11 50 -14 53 -4 5 -12 94 -12 147 -1 79 6
140 15 140 5 0 6 4 2 10 -3 5 8 45 25 88 46 120 122 220 224 297 51 38 152 92
183 99 10 1 25 6 33 9 72 29 256 30 359 3z"/>
</g>
</svg>
