<?xml version="1.0" encoding="UTF-8"?>
<svg width="378" height="227" viewBox="0 0 378 227" fill="none" xmlns="http://www.w3.org/2000/svg">
<path d="M377.5 32.6483L377.5 194.969C377.5 201.223 374.501 207.097 369.435 210.764L352.817 222.795C349.49 225.204 345.488 226.5 341.382 226.5L36.6185 226.5C32.5117 226.5 28.5098 225.203 25.1834 222.795L8.56488 210.764C3.49933 207.097 0.500002 201.222 0.500002 194.969L0.500061 32.6482C0.500061 26.5192 3.38165 20.7468 8.28015 17.0632L25.0997 4.41494C28.4787 1.87399 32.5919 0.500004 36.8196 0.500007L341.18 0.500131C345.408 0.500133 349.521 1.87412 352.9 4.41506L369.72 17.0633C374.618 20.7469 377.5 26.5193 377.5 32.6483Z" fill="url(#paint0_linear_2181_2682)" fill-opacity="0.6" stroke="#646464"/>
<defs>
	<linearGradient id="paint0_linear_2181_2682" x1="363.173" y1="263.011" x2="188.837" y2="-212.817" gradientUnits="userSpaceOnUse">
		<stop offset="0.373264"/>
		<stop offset="1" stop-opacity="0"/>
	</linearGradient>
</defs>
</svg>
