<?xml version="1.0" encoding="UTF-8"?>
<svg id="Calque_1" data-name="Calque 1" xmlns="http://www.w3.org/2000/svg" width="555" height="355" viewBox="0 0 555 355">
  <defs>
    <style>
      .cls-1 {
        fill: none;
        stroke: #646464;
      }
    </style>
  </defs>
  <path class="cls-1" d="M554.5,54.55v246.77c0,10.14-4.73,19.7-12.8,25.85l-27.14,20.68c-5.66,4.31-12.58,6.65-19.7,6.65H60.14c-7.12,0-14.04-2.34-19.7-6.65l-27.14-20.68c-8.07-6.15-12.8-15.71-12.8-25.85V54.55c0-9.97,4.58-19.39,12.42-25.55L40.33,7.45C46.06,2.95,53.13,.5,60.42,.5H494.58c7.28,0,14.36,2.45,20.08,6.95l27.42,21.55c7.84,6.16,12.42,15.58,12.42,25.55Z"/>
</svg>