<svg width="984" height="705" viewBox="0 0 984 705" fill="none" xmlns="http://www.w3.org/2000/svg">
<path d="M983.5 54.5487L983.5 651.32C983.5 661.462 978.765 671.023 970.697 677.17L943.557 697.85C937.897 702.164 930.977 704.5 923.86 704.5L60.1392 704.5C53.0223 704.5 46.1022 702.164 40.4414 697.85L13.3021 677.17C5.23483 671.023 0.499849 661.462 0.499849 651.32L0.500486 54.5485C0.500486 44.5775 5.07757 35.1582 12.9169 28.9966L40.3329 7.448C46.0597 2.94685 53.1325 0.499959 60.4164 0.49996L923.584 0.500008C930.868 0.500009 937.941 2.94684 943.667 7.4479L971.084 28.9966C978.923 35.1583 983.5 44.5776 983.5 54.5487Z" fill="black" stroke="#393939"/>
</svg>
