<svg width="1025" height="629" viewBox="0 0 1025 629" fill="none" xmlns="http://www.w3.org/2000/svg">
<path d="M1023.5 0.500058L1023.5 580L1023.5 596C1023.5 613.949 1008.95 628.5 991.002 628.5L975.002 628.5L317.672 628.5C309.053 628.5 300.787 625.076 294.692 618.982L274.018 598.311C267.736 592.029 259.216 588.5 250.332 588.5L48.4989 588.5L33.0005 588.5C15.0512 588.5 0.500463 573.949 0.500464 556L0.500488 0.500051L48.9998 0.499957L975.002 0.500056L1023.5 0.500058Z" fill="url(#paint0_linear_2002_1877)" stroke="#646464"/>
<path d="M760.002 599H319.816C317.694 599 315.659 598.157 314.159 596.657L278.845 561.343C277.345 559.843 275.31 559 273.188 559H215.002" stroke="#646464" stroke-opacity="0.5"/>
<defs>
<linearGradient id="paint0_linear_2002_1877" x1="1024" y1="666.081" x2="223.85" y2="589.587" gradientUnits="userSpaceOnUse">
<stop stop-opacity="0.95"/>
<stop offset="1" stop-opacity="0.9"/>
</linearGradient>
</defs>
</svg>
