<svg xmlns="http://www.w3.org/2000/svg" class="svg-sprite"><symbol class="svg-sprite" id="border_button_hover" viewBox="0 0 66.75 34"><title>border_button_hover</title><path d="M17.25.5h32.57c2.67 0 5.23 1.07 7.11 2.97l6.43 6.5a9.995 9.995 0 0 1 0 14.07l-6.43 6.5c-1.88 1.9-4.44 2.97-7.11 2.97H17.25c-2.62 0-5.13-1.03-7-2.86l-6.64-6.5c-4-3.93-4-10.37.01-14.29l6.63-6.5c1.87-1.83 4.38-2.86 7-2.86Z" style="stroke:#e20101;stroke-miterlimit:10;fill:#e20101;opacity:.3"/><path d="M17.14.5h32.57c2.67 0 5.23 1.07 7.11 2.97l6.43 6.5a9.995 9.995 0 0 1 0 14.07l-6.43 6.5c-1.88 1.9-4.44 2.97-7.11 2.97H17.14c-2.62 0-5.13-1.03-7-2.86l-6.64-6.5c-4-3.93-4-10.37 0-14.29l6.64-6.5c1.87-1.83 4.38-2.86 7-2.86Z" style="fill:none;stroke:#e20101;stroke-miterlimit:10"/></symbol><symbol class="svg-sprite" id="border_button" viewBox="0 0 66.64 34"><title>border_button</title><path d="M17.14.5h32.57c2.67 0 5.23 1.07 7.11 2.97l6.43 6.5a9.995 9.995 0 0 1 0 14.07l-6.43 6.5c-1.88 1.9-4.44 2.97-7.11 2.97H17.14c-2.62 0-5.13-1.03-7-2.86l-6.64-6.5c-4-3.93-4-10.37 0-14.29l6.64-6.5c1.87-1.83 4.38-2.86 7-2.86Z" style="fill:none;stroke:#fff"/></symbol><symbol class="svg-sprite" id="border_button1" viewBox="0 0 34.07 34"><title>border_button1</title><path d="M17.14.5c2.67 0 5.23 1.07 7.11 2.97l6.43 6.5a9.995 9.995 0 0 1 0 14.07l-6.43 6.5c-1.88 1.9-4.44 2.97-7.11 2.97-2.62 0-5.13-1.03-7-2.86l-6.64-6.5c-4-3.93-4-10.37 0-14.29l6.64-6.5c1.87-1.83 4.38-2.86 7-2.86Z" style="fill:#fff;stroke:#1d1e1b"/></symbol><symbol class="svg-sprite" id="border_resources_hover" viewBox="0 0 555 355"><title>border_resources_hover</title><path d="M554.5 54.55v246.77c0 10.14-4.73 19.7-12.8 25.85l-27.14 20.68a32.52 32.52 0 0 1-19.7 6.65H60.14a32.52 32.52 0 0 1-19.7-6.65L13.3 327.17A32.497 32.497 0 0 1 .5 301.32V54.55C.5 44.58 5.08 35.16 12.92 29L40.33 7.45C46.06 2.95 53.13.5 60.42.5h434.16c7.28 0 14.36 2.45 20.08 6.95L542.08 29a32.497 32.497 0 0 1 12.42 25.55Z" style="fill:none;stroke:#646464"/></symbol><symbol class="svg-sprite" id="border_resources" viewBox="0 0 555 355"><title>border_resources</title><path d="M554.5 54.55v246.77c0 10.14-4.73 19.7-12.8 25.85l-27.14 20.68a32.52 32.52 0 0 1-19.7 6.65H60.14a32.52 32.52 0 0 1-19.7-6.65L13.3 327.17A32.497 32.497 0 0 1 .5 301.32V54.55C.5 44.58 5.08 35.16 12.92 29L40.33 7.45C46.06 2.95 53.13.5 60.42.5h434.16c7.28 0 14.36 2.45 20.08 6.95L542.08 29a32.497 32.497 0 0 1 12.42 25.55Z" style="fill:none;stroke:#393939"/></symbol><symbol class="svg-sprite" id="button_oversized" viewBox="0 0 66.14 33.5"><title>button_oversized</title><path d="M16.89.25h32.57c2.67 0 5.23 1.07 7.11 2.97L63 9.72a9.995 9.995 0 0 1 0 14.07l-6.43 6.5c-1.88 1.9-4.44 2.97-7.11 2.97H16.89c-2.62 0-5.13-1.03-7-2.86l-6.64-6.5c-4-3.93-4-10.37 0-14.29l6.64-6.5c1.87-1.83 4.38-2.86 7-2.86Z" style="fill:none;stroke:#393939;stroke-miterlimit:10;stroke-width:.5px"/></symbol><symbol preserveAspectRatio="xMidYMid" class="svg-sprite" id="discord" viewBox="0 -28.5 256 256"><title>discord</title><path d="M216.856 16.597A208.502 208.502 0 0 0 164.042 0c-2.275 4.113-4.933 9.645-6.766 14.046-19.692-2.961-39.203-2.961-58.533 0-1.832-4.4-4.55-9.933-6.846-14.046a207.809 207.809 0 0 0-52.855 16.638C5.618 67.147-3.443 116.4 1.087 164.956c22.169 16.555 43.653 26.612 64.775 33.193A161.094 161.094 0 0 0 79.735 175.3a136.413 136.413 0 0 1-21.846-10.632 108.636 108.636 0 0 0 5.356-4.237c42.122 19.702 87.89 19.702 129.51 0a131.66 131.66 0 0 0 5.355 4.237 136.07 136.07 0 0 1-21.886 10.653c4.006 8.02 8.638 15.67 13.873 22.848 21.142-6.58 42.646-16.637 64.815-33.213 5.316-56.288-9.08-105.09-38.056-148.36ZM85.474 135.095c-12.645 0-23.015-11.805-23.015-26.18s10.149-26.2 23.015-26.2c12.867 0 23.236 11.804 23.015 26.2.02 14.375-10.148 26.18-23.015 26.18Zm85.051 0c-12.645 0-23.014-11.805-23.014-26.18s10.148-26.2 23.014-26.2c12.867 0 23.236 11.804 23.015 26.2 0 14.375-10.148 26.18-23.015 26.18Z" fill="var(--icon-color)"/></symbol><symbol fill="none" class="svg-sprite" id="instagram" viewBox="0 0 25 25"><title>instagram</title><path d="M12.5 2.292c3.333 0 3.75 0 5.104.104 3.438.104 5 1.77 5.104 5.104.105 1.354.105 1.667.105 5s0 3.75-.105 5c-.104 3.333-1.77 5-5.104 5.104-1.354.104-1.666.104-5.104.104-3.333 0-3.75 0-5-.104-3.438-.104-5-1.77-5.104-5.104-.104-1.354-.104-1.667-.104-5s0-3.75.104-5c.104-3.333 1.77-5 5.104-5.104 1.25-.104 1.667-.104 5-.104ZM12.5 0C9.062 0 8.646 0 7.396.104 2.813.312.313 2.812.104 7.396 0 8.646 0 9.063 0 12.5c0 3.438 0 3.854.104 5.104.208 4.584 2.708 7.084 7.292 7.292C8.646 25 9.063 25 12.5 25c3.438 0 3.854 0 5.104-.104 4.584-.209 7.084-2.709 7.292-7.292C25 16.354 25 15.938 25 12.5s0-3.854-.104-5.104C24.687 2.813 22.187.313 17.604.104 16.354 0 15.938 0 12.5 0Zm0 6.042c-3.542 0-6.458 2.916-6.458 6.458 0 3.542 2.916 6.458 6.458 6.458 3.542 0 6.458-2.916 6.458-6.458 0-3.542-2.916-6.458-6.458-6.458Zm0 10.625A4.179 4.179 0 0 1 8.333 12.5 4.179 4.179 0 0 1 12.5 8.333a4.179 4.179 0 0 1 4.167 4.167 4.179 4.179 0 0 1-4.167 4.167Zm6.667-12.292c-.834 0-1.459.625-1.459 1.458 0 .834.625 1.459 1.459 1.459.833 0 1.458-.625 1.458-1.459 0-.833-.625-1.458-1.458-1.458Z" fill="var(--icon-color)"/></symbol><symbol fill="none" class="svg-sprite" id="medium" viewBox="0 0 31 17"><title>medium</title><path d="M8.515 16.998C4.105 17.094.01 13.448 0 8.526a8.418 8.418 0 0 1 .632-3.262 8.46 8.46 0 0 1 1.847-2.77A8.52 8.52 0 0 1 5.256.644 8.564 8.564 0 0 1 8.536 0a8.559 8.559 0 0 1 3.262.659 8.515 8.515 0 0 1 2.758 1.85 8.453 8.453 0 0 1 1.834 2.762 8.412 8.412 0 0 1 .627 3.248c-.006 4.94-4.1 8.57-8.502 8.48Zm9.321-8.581c.083-1.934.372-3.921 1.377-5.73.435-.786 1.001-1.452 1.81-1.89 1.021-.554 2.038-.272 2.843.403.884.742 1.4 1.73 1.793 2.78.438 1.18.634 2.401.709 3.657.116 1.862-.082 3.675-.724 5.432-.367 1.001-.872 1.917-1.678 2.653-1.114 1.021-2.518 1.025-3.642.01-1.077-.973-1.612-2.242-1.986-3.582a14.626 14.626 0 0 1-.502-3.733Zm10.987 7.279c-.397-.095-.534-.395-.674-.691-.316-.668-.453-1.384-.563-2.106a28.778 28.778 0 0 1-.339-5.332c.054-1.457.22-2.907.5-4.338.089-.461.293-.91.463-1.356.1-.254.262-.474.58-.521.402.047.574.366.675.691.23.671.412 1.357.544 2.053a26.63 26.63 0 0 1 .337 4.642c-.025 1.592-.127 3.183-.438 4.749-.113.505-.26 1.002-.442 1.486-.096.308-.268.592-.643.723Z" fill="var(--icon-color)"/></symbol><symbol fill="none" class="svg-sprite" id="menu" viewBox="0 0 26 14"><title>menu</title><path fill="#fff" d="M0 0h26v2H0zm0 6h26v2H0zm0 6h26v2H0z"/></symbol><symbol style="enable-background:new 0 0 1922 312" class="svg-sprite" id="nav_border" viewBox="0 0 1922 312"><title>nav_border</title><linearGradient id="a" gradientUnits="userSpaceOnUse" x1="1775.264" y1="1338.395" x2="161.076" y2="457.145" gradientTransform="translate(0 -766)"><stop offset="0" style="stop-color:#000;stop-opacity:.95"/><stop offset="1" style="stop-color:#000;stop-opacity:.9"/></linearGradient><path d="M-4.6-5H1922v280.8c0 18.4-14.7 33.3-32.6 33.3h-277.1l-1259 2.4c-7.3 0-14.5-2.5-20.3-7.2l-31.6-25.4c-5.9-4.8-13.3-7.4-20.8-7.4H28c-18 0-32.6-15-32.6-33.3V-5z" style="fill:url(#a)"/><path d="m354.8 278.1.3-.4-.3.4zm-43.6-36.7-.3.4.3-.4zM1498 279.5H359.9v1H1498v-1zm-1142.9-1.8L311.6 241l-.6.8 43.5 36.7.6-.8zm-49-38.7H264v1h42.1v-1zm5.5 2c-1.5-1.3-3.5-2-5.5-2v1c1.8 0 3.5.6 4.8 1.8l.7-.8zm48.3 38.5c-1.8 0-3.5-.6-4.8-1.8l-.6.8c1.5 1.3 3.5 2 5.5 2v-1h-.1z" style="fill:#fff;fill-opacity:.5;stroke:#646464;stroke-miterlimit:10"/></symbol><symbol fill="none" class="svg-sprite" id="quai-logo" viewBox="0 0 46 46"><title>quai-logo</title><path d="M29.942 23A6.95 6.95 0 0 0 23 16.059a6.927 6.927 0 0 0-5.57 2.812A6.9 6.9 0 0 0 16.056 23 6.95 6.95 0 0 0 23 29.943a6.944 6.944 0 0 0 1.745-.229l2.594 3.848a11.433 11.433 0 0 0 3.731-2.483l-2.585-3.833A6.9 6.9 0 0 0 29.942 23Z" fill="#E20101"/><path d="M23 0a23 23 0 1 0 0 46 23 23 0 0 0 0-46Zm10.624 34.871-3.713 2.505-2.575-3.814A11.422 11.422 0 0 1 11.578 23a11.377 11.377 0 0 1 3.25-7.973A11.387 11.387 0 0 1 23 11.582a11.422 11.422 0 0 1 10.554 15.796 11.384 11.384 0 0 1-2.486 3.707l2.557 3.786Z" fill="#E20101"/></symbol><symbol fill="none" class="svg-sprite" id="quai-text-logo" viewBox="0 0 203 14"><title>quai-text-logo</title><path d="M3.351.009h8.054a3.395 3.395 0 0 1 1.579.353 3.67 3.67 0 0 1 1.137.9c.299.357.533.763.691 1.2.152.405.232.832.237 1.264v5.546c-.004.6-.157 1.19-.445 1.718a3.246 3.246 0 0 1-1.393 1.355l-.088.038L14.576 14h-3.418L5.612 7.78H9.03l2.327 2.6h.348a1.068 1.068 0 0 0 .852-.383 1.08 1.08 0 0 0 .218-.354 1 1 0 0 0 .073-.372V3.454a.888.888 0 0 0-.092-.382 1.235 1.235 0 0 0-.252-.363 1.399 1.399 0 0 0-.392-.272 1.187 1.187 0 0 0-.518-.11H3.357a1.14 1.14 0 0 0-.872.382 1.096 1.096 0 0 0-.217.354 1.002 1.002 0 0 0-.073.372v5.837c0 .128.025.254.073.372.05.131.123.251.218.354a1.127 1.127 0 0 0 .872.382h1.49l2.018 2.328H3.357a3.157 3.157 0 0 1-1.456-.316 3.407 3.407 0 0 1-1.051-.827 3.587 3.587 0 0 1-.632-1.112A3.474 3.474 0 0 1 0 9.281V3.445c.005-.4.078-.797.218-1.172.141-.405.356-.78.632-1.109A3.32 3.32 0 0 1 1.9.337c.45-.223.947-.336 1.45-.328Zm15.905 0h2.21v8.998a1.478 1.478 0 0 0 .364.928c.13.139.284.252.455.335.197.095.413.142.632.136h7.782c.218.005.434-.041.631-.136a1.372 1.372 0 0 0 .71-.79c.058-.151.089-.311.093-.473V.025h2.21v8.982a3.753 3.753 0 0 1-.237 1.263c-.157.44-.39.85-.688 1.21a3.664 3.664 0 0 1-1.137.9 3.357 3.357 0 0 1-1.58.354H22.92a3.357 3.357 0 0 1-1.58-.354 3.664 3.664 0 0 1-1.136-.9 3.946 3.946 0 0 1-.692-1.21 3.753 3.753 0 0 1-.237-1.263L19.256.009Zm18.526 12.709L44.098.008h2.31l6.29 12.71h-2.82l-4.636-9.346-4.618 9.346h-2.842ZM56.532.009h2.211v12.709h-2.21V.008Zm16.182 12.709V.008h2.363l10.491 9.855V.009h2.211v12.709h-2.293L74.925 2.864v9.854h-2.21ZM91.986.009h13.783v2.327H91.986V.01Zm0 5.202h13.783v2.308H94.188v2.871h11.581v2.328H91.986V5.21ZM109.627.009h15.053v2.327h-6.428v10.382h-2.21V2.336h-6.437l.022-2.327Zm21.072 0 3.344 9.475 2.439-6.892h2.842l2.435 6.892 3.345-9.475h2.836l-5.019 12.709h-2.293l-2.709-6.835-2.707 6.835h-2.309L127.85.008h2.849Zm20.741 3.727a3.76 3.76 0 0 1 .237-1.264c.156-.438.39-.844.689-1.2a3.663 3.663 0 0 1 1.137-.9 3.395 3.395 0 0 1 1.579-.354h7.747a3.395 3.395 0 0 1 1.579.354 3.796 3.796 0 0 1 1.845 2.1c.151.405.231.832.237 1.264v5.27a3.76 3.76 0 0 1-.237 1.264 3.797 3.797 0 0 1-1.845 2.11 3.353 3.353 0 0 1-1.579.354h-7.747a3.356 3.356 0 0 1-1.579-.354 3.663 3.663 0 0 1-1.137-.9 3.877 3.877 0 0 1-.689-1.21 3.76 3.76 0 0 1-.237-1.263V3.736Zm2.211 5.255c.004.162.035.322.092.474.06.168.152.322.271.454.131.138.285.252.455.335.197.096.413.142.632.136h7.747a1.399 1.399 0 0 0 1.08-.47 1.464 1.464 0 0 0 .354-.929V3.736a1.4 1.4 0 0 0-.088-.471 1.436 1.436 0 0 0-.266-.455 1.392 1.392 0 0 0-1.077-.474h-7.747a1.365 1.365 0 0 0-.632.136 1.543 1.543 0 0 0-.454.338c-.12.132-.213.287-.272.455-.057.15-.088.31-.092.47l-.003 5.256ZM182.101.01a3.395 3.395 0 0 1 1.579.353 3.67 3.67 0 0 1 1.137.9c.299.357.533.763.692 1.2.149.405.228.833.234 1.264V5.09a3.863 3.863 0 0 1-.234 1.264c-.157.44-.391.85-.692 1.21a3.663 3.663 0 0 1-1.137.9 3.356 3.356 0 0 1-1.579.353h-.799l4.235 3.891h-3.382l-6.317-5.764V6.49h6.273c.218.006.434-.041.631-.135.17-.082.322-.196.449-.335a1.41 1.41 0 0 0 .262-.455c.057-.152.088-.312.091-.474V3.727a1.403 1.403 0 0 0-.802-1.264 1.382 1.382 0 0 0-.631-.135h-9.22v10.381h-2.21V0l11.42.01Zm7.739-.001h2.211v5.208h1.563l5.783-5.202h3.383l-6.91 6.345 6.91 6.364h-3.383l-5.783-5.198h-1.563v5.198h-2.211V.01Z" fill="#fff"/></symbol><symbol fill="none" class="svg-sprite" id="reddit" viewBox="0 0 22 22"><title>reddit</title><path fill-rule="evenodd" clip-rule="evenodd" d="M22 11c0 6.075-4.925 11-11 11S0 17.075 0 11 4.925 0 11 0s11 4.925 11 11Zm-5.275-1.608c.888 0 1.608.72 1.608 1.608 0 .656-.398 1.222-.926 1.48.026.154.039.308.039.476 0 2.47-2.87 4.464-6.42 4.464-3.551 0-6.42-1.994-6.42-4.465 0-.167.013-.334.038-.488A1.609 1.609 0 0 1 5.3 9.392c.425 0 .824.18 1.107.45 1.106-.81 2.637-1.312 4.349-1.364l.81-3.834a.313.313 0 0 1 .129-.18.32.32 0 0 1 .219-.038l2.663.566c.18-.386.566-.643 1.016-.643.63 0 1.145.514 1.145 1.145a1.146 1.146 0 0 1-2.29.051l-2.38-.502-.733 3.435c1.672.065 3.19.58 4.284 1.364.283-.283.669-.45 1.106-.45ZM8.478 11c-.63 0-1.145.515-1.145 1.145s.515 1.145 1.145 1.145 1.145-.515 1.145-1.145S9.11 11 8.478 11Zm2.535 5.005c.437 0 1.93-.052 2.714-.837a.331.331 0 0 0 .026-.424.303.303 0 0 0-.424 0c-.502.489-1.544.669-2.303.669-.76 0-1.814-.18-2.303-.67a.303.303 0 0 0-.425 0 .303.303 0 0 0 0 .425c.772.772 2.277.837 2.715.837Zm1.364-3.86c0 .63.514 1.145 1.145 1.145.63 0 1.145-.515 1.145-1.145S14.152 11 13.522 11s-1.145.515-1.145 1.145Z" fill="var(--icon-color)"/></symbol><symbol style="fill-rule:evenodd;clip-rule:evenodd" class="svg-sprite" id="resources-angle" viewBox="0 0 80 80"><title>resources-angle</title><path d="m1919.5 54.551-.5 3705.95H0L.497 54.551a32.496 32.496 0 0 1 12.417-25.547L40.332 7.453A32.503 32.503 0 0 1 60.416.505h1799.17c7.28 0 14.35 2.447 20.08 6.948L1907.076 29a32.51 32.51 0 0 1 12.42 25.556Z" style="fill-rule:nonzero;stroke:#393939;stroke-width:1px"/></symbol><symbol fill="none" class="svg-sprite" id="separator" viewBox="0 0 42 509"><title>separator</title><path d="M41.002 509V95.343a8 8 0 0 0-1.856-5.123L2.858 46.7a8 8 0 0 1-1.856-5.124V0" stroke="#646464" stroke-opacity=".5"/></symbol><symbol fill="none" class="svg-sprite" id="three-boxes" viewBox="0 0 21 21"><title>three-boxes</title><path d="M11.004 1.283a1 1 0 0 0-.991 0L6.258 3.426a1 1 0 0 0-.504.868v4.267a1 1 0 0 0 .504.868l3.755 2.143a1 1 0 0 0 .991 0L14.76 9.43a1 1 0 0 0 .504-.868V4.294a1 1 0 0 0-.504-.868l-3.755-2.143Z" stroke="#fff" stroke-miterlimit="10"/><path d="m5.754 3.714 4.267 2.443a1 1 0 0 0 .996-.001l4.246-2.442m-4.755 8.141.01-5.413M6.25 9.428a1 1 0 0 0-.99 0l-3.755 2.143A1 1 0 0 0 1 12.44v4.266a1 1 0 0 0 .505.868l3.754 2.143a1 1 0 0 0 .992 0l3.754-2.143a1 1 0 0 0 .505-.868V12.44a1 1 0 0 0-.505-.869L6.251 9.428Z" stroke="#fff" stroke-miterlimit="10"/><path d="m1 11.858 4.268 2.444a1 1 0 0 0 .995-.002l4.247-2.442M5.755 20l.01-5.413m9.975-5.159a1 1 0 0 0-.99 0l-3.755 2.143a1 1 0 0 0-.504.869v4.266a1 1 0 0 0 .504.868l3.755 2.143a1 1 0 0 0 .991 0l3.755-2.143a1 1 0 0 0 .504-.868V12.44a1 1 0 0 0-.504-.869L15.74 9.428Z" stroke="#fff" stroke-miterlimit="10"/><path d="m10.49 11.858 4.268 2.444a1 1 0 0 0 .996-.001L20 11.858M15.246 20l.01-5.413" stroke="#fff" stroke-miterlimit="10"/></symbol><symbol fill="none" class="svg-sprite" id="tiktok" viewBox="0 0 22 25"><title>tiktok</title><path d="M15.784 0h-4.213v17.029c0 2.029-1.62 3.696-3.637 3.696s-3.637-1.667-3.637-3.696c0-1.993 1.584-3.623 3.529-3.696V9.058C3.54 9.13.083 12.645.083 17.029.083 21.449 3.613 25 7.97 25c4.357 0 7.886-3.587 7.886-7.971V8.297a9.757 9.757 0 0 0 5.582 1.884V5.906c-3.17-.109-5.654-2.718-5.654-5.906Z" fill="var(--icon-color)"/></symbol><symbol fill="none" class="svg-sprite" id="twitter" viewBox="0 0 22 19"><title>twitter</title><path d="M6.922 18.227c8.3 0 12.84-6.925 12.84-12.93 0-.194-.004-.393-.012-.588A9.202 9.202 0 0 0 22 2.356a8.851 8.851 0 0 1-2.59.714A4.564 4.564 0 0 0 21.394.557 9.035 9.035 0 0 1 18.53 1.66a4.492 4.492 0 0 0-5.423-.894 4.538 4.538 0 0 0-1.983 2.131 4.58 4.58 0 0 0-.289 2.907 12.75 12.75 0 0 1-5.15-1.378 12.836 12.836 0 0 1-4.15-3.367 4.577 4.577 0 0 0-.494 3.31 4.55 4.55 0 0 0 1.89 2.754 4.495 4.495 0 0 1-2.045-.566v.056c0 1.05.36 2.067 1.02 2.88.66.812 1.58 1.37 2.602 1.576a4.453 4.453 0 0 1-2.037.078c.289.903.85 1.693 1.605 2.259.756.566 1.668.88 2.61.9A9.013 9.013 0 0 1 0 16.186a12.74 12.74 0 0 0 6.92 2.041Z" fill="var(--icon-color)"/></symbol><symbol style="enable-background:new 0 0 1263.3 159.6" class="svg-sprite" id="unseen-logo" viewBox="0 0 1263.3 159.6"><title>unseen-logo</title><style>.st0{fill:#fff}</style><path class="st0" d="M1233.6 45c0-8.7 6.5-15.1 14.8-15.1s14.8 6.4 14.8 15.1-6.5 15.1-14.8 15.1-14.8-6.4-14.8-15.1zm27.3 0c0-7.5-5.3-13-12.5-13s-12.5 5.5-12.5 13 5.3 13 12.5 13 12.5-5.5 12.5-13zm-18.3-8h7.4c3 0 5 1.8 5 4.4 0 1.9-.9 3.3-3 3.9v.1c1.6.5 2.2 1.4 2.4 3.5.2 2.4.3 3.7.7 3.9v.2h-2.7c-.4-.2-.5-1.6-.6-3.7-.1-2-1.1-2.9-3.2-2.9h-3.4V53h-2.7l.1-16zm2.8 7.3h4c1.9 0 2.9-1 2.9-2.5 0-1.6-.9-2.5-2.9-2.5h-4.1v5zM87.7 53v103.5H69.1v-16.8C50.7 168.3 0 168 0 117.8V53h18.6v64.8c0 41 50.5 30.6 50.5-1.5V53h18.6zm104.5 38.7v64.8h-18.6V91.7c0-41-51.1-30.6-51.1 1.5v63.3h-18.6V53h18.6v16.1c19.3-27.9 69.7-27.3 69.7 22.6zm11 32.5h18.6c0 11.8 11.4 18.4 24.8 18.4 13.9 0 24.8-6.4 24.8-18.4 0-23.8-67-1.9-67-43.2 0-18.6 18.6-29.6 40.3-29.6 21.9 0 39.9 10.3 39.9 29.6h-17.2c0-10.1-10.1-15.3-22.8-15.3S222 71 222 80.9c0 23.8 68.1.6 68.1 43.2 0 20.3-18.6 34.1-43.5 34.1-24.8.1-43.4-11.9-43.4-34zM348.7 143c19.5 0 29.8-11 33.7-20.3l14.3 6.8c-6 12.8-21.1 28.3-48 28.3-29.6 0-50.7-21.9-50.7-53.6 0-31 21.1-53 50.7-53 29.4 0 53.8 22.1 49.7 61.2H316c2.7 17.6 14.1 30.6 32.7 30.6zm33.5-46.4c-2.7-19.2-16.6-30.4-33.5-30.4-18.8 0-30.2 13-32.7 30.4h66.2zm77.2 46.4c19.4 0 29.8-11 33.7-20.3l14.3 6.8c-6 12.8-21.1 28.3-48 28.3-29.6 0-50.7-21.9-50.7-53.6 0-31 21.1-53 50.7-53 29.4 0 53.8 22.1 49.7 61.2h-82.4c2.7 17.6 14.1 30.6 32.7 30.6zm33.5-46.4c-2.7-19.2-16.6-30.4-33.5-30.4-18.8 0-30.2 13-32.7 30.4h66.2zm116.9-4.9v64.8h-18.6V91.7c0-41-51.1-30.6-51.1 1.5v63.3h-18.6V53h18.6v16.1c19.2-27.9 69.7-27.3 69.7 22.6zM726.6 136c-.8-23.2-74.1-21.9-76.6-53.2-2.9-31.5 36.4-41.2 82.2-25v31H731c-2.5-17.2-14.9-38.7-49.7-35.2-8.1 1-23.2 3.5-21.7 17 2.1 26.9 75.7 19.7 78 53.2.8 12-6.4 21.9-9.7 25-16.1 14.7-44.5 10.8-74.5 6.6l-.4-42.2 1.2.4c0 52.8 72.4 53.2 72.4 22.4zm33.7-5.8V65h-13.4l30.2-37v25h42.8l-10.3 12h-32.5l-.6 71.2c-.2 25.2 35 21.9 55.5-10.3h1.9c-25.1 45.7-73.6 39-73.6 4.3zm82.2-12.9-.2-64.3h17.2v60.6c0 38.3 38.3 57.3 63.4 15.7v-4.5l.4-71.8H940v72c0 20.9 4.6 30 12.4 31.7-24.2 0-28.8-9.5-29.6-23.8-26.3 45.3-80.1 26-80.3-15.6zM1047 59.2l.6-44.1L1063.7 0v125c0 19.9 4.6 29.8 12.4 31.5-20.7 0-28.3-8.3-29.6-18.2-8.3 11.6-21.7 20.5-41.6 20.5-35.8 0-54.2-39.5-44.3-67.9 7.9-22.8 39-58 86.4-31.7zm-28.8 90.6c12.8 0 21.3-6 28.1-15.3v-1.7l.7-54.8c-17.2-19.5-48-30.8-65.8-8.1-20.1 22.8-4.2 79.9 37 79.9zm80.3-138.4c6 0 11 5 11 11s-5 10.8-11 10.8-10.8-4.8-10.8-10.8 4.8-11 10.8-11zm8.9 145.1h-18.6l.8-12.4V53h17v91l.8 12.5zm131.2-50.5c-.4 29.8-28.3 53.6-57.7 53.6-29 0-56.3-23.8-55.7-53.6.2-29.4 28.6-55 57.7-55 29.2-.1 56.1 25.6 55.7 55zm-19 0c-.8-36.2-21.3-51.7-41.4-51.7-20.3 0-37.2 18-34.6 51.7 2.3 31.7 21.3 49.5 41.4 49.5 20.5-.1 34.8-15.8 34.6-49.5z"/></symbol><symbol fill="none" class="svg-sprite" id="world" viewBox="0 0 64 64"><title>world</title><circle cx="32" cy="32" r="23.5" stroke="#E20101" stroke-opacity=".6"/><circle cx="32" cy="32" r="27.5" stroke="#E20101" stroke-opacity=".4"/><circle cx="32" cy="32" r="31.5" stroke="#E20101" stroke-opacity=".2"/><path d="M32 51c10.493 0 19-8.507 19-19s-8.507-19-19-19-19 8.507-19 19 8.507 19 19 19Z" stroke="#E20101" stroke-miterlimit="10"/><path d="M32 51c5.247 0 9.5-8.507 9.5-19S37.247 13 32 13s-9.5 8.507-9.5 19 4.253 19 9.5 19Zm0-38v38M13 32h38M16.167 21.444h31.666M48.89 41.5H15.11" stroke="#E20101" stroke-miterlimit="10"/></symbol><symbol fill="none" class="svg-sprite" id="youtube" viewBox="0 0 24 24"><title>youtube</title><path d="M23.76 7.2s-.233-1.655-.955-2.381c-.914-.957-1.936-.961-2.405-1.018-3.356-.243-8.395-.243-8.395-.243h-.01s-5.039 0-8.395.243c-.469.057-1.49.061-2.405 1.018-.722.726-.951 2.38-.951 2.38S0 9.146 0 11.087v1.819c0 1.94.24 3.885.24 3.885s.233 1.655.95 2.382c.915.956 2.115.923 2.65 1.026 1.92.183 8.16.24 8.16.24s5.044-.01 8.4-.25c.469-.055 1.49-.06 2.405-1.016.722-.727.956-2.382.956-2.382S24 14.85 24 12.905v-1.82c0-1.94-.24-3.885-.24-3.885ZM9.52 15.112V8.367l6.483 3.384-6.483 3.361Z" fill="var(--icon-color)"/></symbol></svg>